<svg width="526" height="130" viewBox="0 0 526 130" fill="none" xmlns="http://www.w3.org/2000/svg">
<path d="M404.922 95.2136C408.205 95.2136 411.032 95.3352 413.403 95.5784C415.774 95.7608 417.659 95.9432 419.057 96.1256C418.753 95.2744 418.48 94.5145 418.237 93.8457C418.054 93.1769 417.872 92.5993 417.689 92.1129C417.325 90.6537 416.808 88.8905 416.139 86.8234C415.47 84.6954 414.71 82.4763 413.859 80.1659C413.069 77.7947 412.248 75.454 411.397 73.1436C410.546 70.7724 409.725 68.6141 408.934 66.6685C408.022 68.6141 407.05 70.7724 406.016 73.1436C405.043 75.454 404.07 77.7947 403.098 80.1659C402.186 82.4763 401.304 84.6954 400.453 86.8234C399.663 88.9513 399.024 90.7449 398.538 92.2041C398.416 92.6905 398.234 93.2073 397.991 93.7545C397.808 94.2409 397.595 94.8185 397.352 95.4872C399.784 95.3048 402.307 95.2136 404.922 95.2136ZM422.614 90.7449C422.918 91.9001 423.435 93.5417 424.165 95.6696C424.955 97.7976 425.806 100.138 426.718 102.692C427.63 105.185 428.572 107.738 429.545 110.353C430.579 112.967 431.491 115.369 432.281 117.557C433.072 119.685 433.74 121.448 434.288 122.847C434.835 124.184 435.108 124.884 435.108 124.944C435.23 125.188 435.291 125.492 435.291 125.856C435.291 127.012 434.744 127.802 433.649 128.227C433.467 128.349 433.163 128.41 432.737 128.41C432.251 128.41 431.764 128.258 431.278 127.954C430.852 127.711 430.548 127.316 430.366 126.768C430.305 126.586 429.94 125.674 429.272 124.032C428.603 122.33 427.782 120.263 426.809 117.831C425.897 115.399 424.864 112.754 423.709 109.897C422.553 106.978 421.429 104.212 420.334 101.598C419.118 101.415 417.72 101.202 416.139 100.959C414.801 100.838 413.16 100.716 411.214 100.594C409.33 100.412 407.232 100.321 404.922 100.321C403.341 100.321 401.699 100.382 399.997 100.503C398.355 100.564 396.744 100.655 395.163 100.777C394.069 103.391 392.883 106.188 391.607 109.167C390.33 112.146 389.114 114.913 387.959 117.466C386.804 120.02 385.831 122.208 385.04 124.032C384.25 125.796 383.824 126.768 383.764 126.951C383.277 127.924 382.487 128.41 381.392 128.41C380.967 128.41 380.632 128.349 380.389 128.227C379.356 127.741 378.839 126.951 378.839 125.856C378.839 125.552 378.93 125.218 379.112 124.853C379.112 124.792 379.447 124.032 380.116 122.573C380.784 121.053 381.605 119.168 382.578 116.919C383.612 114.609 384.736 112.085 385.952 109.349C387.168 106.553 388.324 103.877 389.418 101.324C387.716 101.506 386.317 101.689 385.223 101.871C384.128 101.993 383.49 102.054 383.308 102.054C382.639 102.054 382.061 101.841 381.575 101.415C381.149 100.99 380.876 100.351 380.754 99.5C380.754 98.8312 380.936 98.284 381.301 97.8584C381.727 97.372 382.274 97.068 382.943 96.9464C383.064 96.9464 383.916 96.8552 385.496 96.6728C387.138 96.4296 389.175 96.1864 391.607 95.9432C392.093 94.8489 392.488 93.8457 392.792 92.9337C393.157 92.0217 393.461 91.2313 393.704 90.5625C394.251 88.9209 395.042 86.7626 396.075 84.0874C397.17 81.3515 398.325 78.5243 399.541 75.606C400.757 72.6268 401.973 69.7693 403.189 67.0333C404.466 64.2366 405.56 61.9262 406.472 60.1022C406.594 59.1294 407.08 58.4303 407.931 58.0047C408.174 57.8831 408.57 57.8223 409.117 57.8223C409.603 57.8223 410.029 57.9135 410.394 58.0959C411.184 58.5215 411.64 59.2206 411.762 60.1934C412.552 62.0174 413.464 64.3278 414.497 67.1245C415.592 69.9213 416.656 72.8092 417.689 75.7884C418.784 78.7067 419.757 81.5339 420.608 84.2698C421.459 86.945 422.128 89.1033 422.614 90.7449Z" fill="black"/>
<path d="M367.439 90.1064C367.439 91.2616 367.5 92.9032 367.621 95.0312C367.804 97.1591 367.986 99.4999 368.169 102.053C368.412 104.546 368.655 107.13 368.898 109.805C369.141 112.42 369.385 114.821 369.628 117.01C369.871 119.138 370.053 120.932 370.175 122.391C370.357 123.789 370.449 124.519 370.449 124.579C370.449 125.248 370.205 125.826 369.719 126.312C369.293 126.799 368.685 127.072 367.895 127.133C367.226 127.133 366.649 126.92 366.162 126.495C365.737 126.069 365.463 125.522 365.341 124.853C365.341 124.671 365.25 123.85 365.068 122.391C364.946 120.932 364.764 119.138 364.521 117.01C364.277 114.821 364.034 112.42 363.791 109.805C363.548 107.191 363.305 104.637 363.061 102.145C362.879 99.5911 362.697 97.2503 362.514 95.1224C362.393 92.9944 362.332 91.3224 362.332 90.1064C362.332 88.2825 362.241 85.9417 362.058 83.0842C361.937 80.2266 361.754 77.3083 361.511 74.3291C361.268 71.2892 360.994 68.4012 360.69 65.6653C360.386 62.9293 360.082 60.7405 359.778 59.099C359.778 58.491 359.991 57.9438 360.417 57.4574C360.842 56.971 361.481 56.667 362.332 56.5454C362.94 56.5454 363.487 56.7278 363.973 57.0926C364.46 57.4574 364.764 57.9438 364.885 58.5518C365.189 60.2541 365.493 62.5341 365.797 65.3917C366.101 68.1884 366.375 71.1372 366.618 74.2379C366.861 77.3387 367.044 80.3482 367.165 83.2666C367.348 86.1241 367.439 88.4041 367.439 90.1064Z" fill="black"/>
<path d="M347.284 78.3418C347.284 77.3083 347.071 76.1227 346.645 74.7851C346.281 73.3867 345.673 72.0188 344.821 70.6812C343.97 69.3436 342.906 68.1276 341.629 67.0332C340.353 65.9389 338.863 65.1485 337.161 64.6621C333.878 63.8109 331.05 63.2029 328.679 62.8381C326.308 62.4733 324.15 62.2909 322.204 62.2909C320.076 62.2909 318.1 62.4733 316.276 62.8381C314.513 63.2029 312.568 63.6285 310.44 64.1149C310.683 66.182 310.896 68.462 311.078 70.9548C311.321 73.3867 311.504 75.7883 311.625 78.1595C311.808 80.5306 311.929 82.7802 311.99 84.9081C312.112 87.0361 312.172 88.7689 312.172 90.1064C312.172 90.4104 312.172 90.7752 312.172 91.2008C312.172 91.6264 312.203 92.0824 312.264 92.5688C313.115 92.5688 313.936 92.5688 314.726 92.5688C315.577 92.5688 316.428 92.5992 317.28 92.66C318.617 92.7208 319.924 92.7512 321.201 92.7512C322.539 92.7512 323.876 92.7512 325.214 92.7512C327.646 92.7512 329.926 92.6904 332.054 92.5688C334.242 92.4472 336.127 92.1736 337.708 91.748C339.775 91.14 341.417 90.4408 342.633 89.6505C343.849 88.7993 344.761 87.8873 345.369 86.9145C345.977 85.9417 346.372 84.8777 346.554 83.7226C346.797 82.5674 346.98 81.3818 347.101 80.1658L347.193 79.0714L347.284 78.3418ZM338.438 59.7374C340.687 60.3453 342.693 61.3485 344.457 62.7469C346.22 64.1453 347.679 65.7261 348.834 67.4892C349.989 69.2524 350.871 71.1068 351.479 73.0523C352.087 74.9371 352.391 76.7003 352.391 78.3418C352.391 78.585 352.361 78.7978 352.3 78.9802C352.3 79.1626 352.3 79.3754 352.3 79.6186L352.209 80.713C352.087 81.9898 351.874 83.3882 351.57 84.9081C351.266 86.3673 350.689 87.8265 349.837 89.2857C348.986 90.7448 347.709 92.1432 346.007 93.4808C344.305 94.7576 341.994 95.7912 339.076 96.5815C337.252 97.1287 335.154 97.4935 332.783 97.6759C330.473 97.7975 327.98 97.8583 325.305 97.8583C323.967 97.8583 322.63 97.8583 321.292 97.8583C319.955 97.8583 318.587 97.8279 317.188 97.7671C316.398 97.7063 315.608 97.6759 314.817 97.6759C314.088 97.6759 313.328 97.6759 312.537 97.6759C312.72 100.351 312.963 103.239 313.267 106.34C313.571 109.38 313.844 112.237 314.088 114.912C314.392 117.588 314.635 119.837 314.817 121.661C315.06 123.485 315.182 124.458 315.182 124.579C315.182 125.248 314.939 125.826 314.452 126.312C314.027 126.799 313.419 127.072 312.628 127.133C311.96 127.133 311.382 126.92 310.896 126.495C310.409 126.069 310.136 125.522 310.075 124.853C310.014 124.671 309.892 123.85 309.71 122.391C309.588 120.932 309.406 119.138 309.163 117.01C308.98 114.821 308.768 112.42 308.524 109.805C308.281 107.191 308.038 104.637 307.795 102.145C307.612 99.5911 307.43 97.2503 307.248 95.1224C307.126 92.9944 307.065 91.3224 307.065 90.1064C307.065 88.5865 307.004 86.7321 306.883 84.5433C306.822 82.3546 306.7 80.0442 306.518 77.6123C306.336 75.1803 306.123 72.7787 305.88 70.4076C305.697 67.9756 305.485 65.7869 305.241 63.8413C305.12 63.7197 305.029 63.5677 304.968 63.3853C304.907 63.1421 304.816 62.7773 304.694 62.2909C304.694 62.0477 304.755 61.7437 304.877 61.3789C304.816 61.0749 304.755 60.7405 304.694 60.3757C304.694 60.011 304.633 59.5854 304.512 59.099C304.512 58.491 304.725 57.9438 305.15 57.4574C305.576 56.971 306.214 56.667 307.065 56.5454C307.673 56.5454 308.22 56.7582 308.707 57.1838C309.193 57.6094 309.497 58.2478 309.619 59.099C311.808 58.5518 313.875 58.0958 315.82 57.731C317.766 57.3662 319.863 57.1838 322.113 57.1838C324.241 57.1838 326.582 57.3966 329.135 57.8222C331.75 58.187 334.85 58.8254 338.438 59.7374Z" fill="black"/>
<path d="M287.275 106.34C288.127 104.638 289.039 102.418 290.011 99.6825C290.984 96.8858 291.471 93.7546 291.471 90.2891C291.471 87.6139 291.075 84.9084 290.285 82.1724C289.555 79.8013 288.674 77.6733 287.64 75.7885C286.667 73.843 285.603 72.1406 284.448 70.6814C283.293 69.1614 282.107 67.8543 280.892 66.7599C279.736 65.6655 278.642 64.7535 277.608 64.0239C275.359 62.4432 273.261 61.3488 271.316 60.7408C269.431 60.1328 267.85 59.8288 266.573 59.8288C264.81 60.376 263.351 60.9232 262.196 61.4704C261.041 62.0176 260.433 62.2912 260.372 62.2912C260.007 62.4736 259.612 62.5647 259.186 62.5647C258.396 62.5647 257.788 62.2912 257.362 61.744C255.234 62.8991 253.198 64.9967 251.252 68.0367C249.306 71.0766 247.695 74.7853 246.418 79.1629C245.567 82.0204 244.929 84.878 244.503 87.7355C244.078 90.5931 243.865 93.3898 243.865 96.1258C243.865 99.9561 244.291 103.33 245.142 106.249C245.75 108.194 246.51 109.897 247.422 111.356C248.334 112.815 249.337 114.061 250.431 115.095C251.526 116.068 252.65 116.889 253.806 117.557C255.022 118.165 256.146 118.652 257.18 119.017C259.977 120.05 262.956 120.567 266.117 120.567C268.853 120.567 271.468 120.202 273.96 119.473C275.845 118.925 278.004 117.557 280.436 115.369C282.928 113.18 285.208 110.17 287.275 106.34ZM280.527 59.92C281.743 60.7712 283.019 61.8352 284.357 63.1119C285.755 64.3887 287.123 65.8783 288.461 67.5807C289.799 69.283 291.045 71.2286 292.2 73.4174C293.355 75.5453 294.358 77.9773 295.21 80.7132C296.122 83.814 296.578 87.0059 296.578 90.2891C296.578 93.3898 296.152 96.4906 295.301 99.5913C294.51 102.692 293.325 105.732 291.744 108.711C289.616 112.602 287.093 115.977 284.175 118.834C281.256 121.631 278.338 123.455 275.42 124.306C272.38 125.218 269.279 125.674 266.117 125.674C262.469 125.674 258.913 125.066 255.447 123.85C254.11 123.364 252.711 122.725 251.252 121.935C249.793 121.084 248.364 120.02 246.966 118.743C245.567 117.466 244.26 115.946 243.044 114.183C241.889 112.359 240.947 110.201 240.217 107.708C239.244 104.425 238.758 100.564 238.758 96.1258C238.758 93.2074 238.971 90.1979 239.396 87.0971C239.883 83.9356 240.582 80.8044 241.494 77.7037C243.196 71.867 245.415 67.0943 248.151 63.3855C250.948 59.6768 253.988 57.3056 257.271 56.2721C258.183 56.0289 259.125 55.9073 260.098 55.9073C260.402 55.9073 260.706 55.9073 261.01 55.9073C261.314 55.9073 261.618 55.9681 261.922 56.0897C262.713 55.7857 263.777 55.4209 265.114 54.9953C265.722 54.8129 266.452 54.7217 267.303 54.7217C269.127 54.7217 271.194 55.1777 273.504 56.0897C275.876 57.0016 278.216 58.2784 280.527 59.92Z" fill="black"/>
<path d="M240.216 58.7342C240.885 58.795 241.432 59.099 241.858 59.6462C242.284 60.1326 242.466 60.771 242.405 61.5613C242.344 62.2301 242.071 62.7773 241.584 63.2029C241.098 63.5677 240.429 63.7501 239.578 63.7501L237.845 63.5677C236.629 63.4461 234.927 63.2941 232.738 63.1117C230.549 62.9293 227.905 62.7773 224.804 62.6557C221.764 62.5341 218.359 62.4733 214.59 62.4733C214.103 62.4733 213.647 62.4733 213.222 62.4733C212.796 62.4733 212.34 62.5037 211.854 62.5645C212.097 64.5709 212.34 66.9117 212.583 69.5868C212.887 72.2012 213.131 74.8459 213.313 77.5211C213.495 80.1962 213.647 82.7498 213.769 85.1817C213.89 87.5529 213.951 89.4985 213.951 91.0184C213.951 92.1736 214.012 93.8152 214.134 95.9432C214.316 98.0711 214.498 100.412 214.681 102.965C214.924 105.458 215.167 108.042 215.41 110.717C215.654 113.332 215.897 115.733 216.14 117.922C216.383 120.05 216.566 121.844 216.687 123.303C216.87 124.701 216.961 125.431 216.961 125.491C216.961 126.16 216.718 126.707 216.231 127.133C215.806 127.619 215.198 127.923 214.407 128.045C213.738 128.045 213.161 127.832 212.675 127.407C212.188 126.981 211.915 126.434 211.854 125.765C211.854 125.583 211.763 124.762 211.58 123.303C211.398 121.844 211.185 120.05 210.942 117.922C210.759 115.733 210.547 113.332 210.303 110.717C210.06 108.103 209.817 105.549 209.574 103.057C209.391 100.503 209.209 98.1623 209.027 96.0344C208.905 93.9064 208.844 92.2344 208.844 91.0184C208.844 89.3769 208.783 87.3097 208.662 84.817C208.54 82.3242 208.358 79.7402 208.115 77.0651C207.932 74.3899 207.719 71.7756 207.476 69.222C207.233 66.6685 206.99 64.4797 206.747 62.6557C203.463 62.7773 200.241 62.9293 197.08 63.1117C193.918 63.2333 191.121 63.3853 188.689 63.5677C186.197 63.7501 184.19 63.9021 182.67 64.0237C181.089 64.1453 180.269 64.2061 180.208 64.2061C179.539 64.2669 178.961 64.0541 178.475 63.5677C177.989 63.0813 177.715 62.4429 177.654 61.6525C177.654 60.9838 177.867 60.4062 178.293 59.9198C178.718 59.4334 179.265 59.1598 179.934 59.099C179.995 59.099 180.846 59.0382 182.488 58.9166C184.129 58.795 186.288 58.643 188.963 58.4606C191.638 58.2782 194.648 58.0958 197.992 57.9134C201.396 57.731 204.831 57.579 208.297 57.4574C208.419 57.4574 208.54 57.4574 208.662 57.4574C208.783 57.3966 209.027 57.3966 209.391 57.4574C210.243 57.4574 211.094 57.4574 211.945 57.4574C212.857 57.3966 213.738 57.3662 214.59 57.3662C218.481 57.3662 221.977 57.427 225.078 57.5486C228.178 57.6702 230.823 57.8222 233.012 58.0046C235.261 58.187 236.994 58.3694 238.21 58.5518C239.426 58.6734 240.095 58.7342 240.216 58.7342Z" fill="black"/>
<path d="M176.287 106.34C177.138 104.638 178.05 102.418 179.023 99.6825C179.996 96.8858 180.482 93.7546 180.482 90.2891C180.482 87.6139 180.087 84.9084 179.297 82.1724C178.567 79.8013 177.685 77.6733 176.652 75.7885C175.679 73.843 174.615 72.1406 173.46 70.6814C172.305 69.1614 171.119 67.8543 169.903 66.7599C168.748 65.6655 167.654 64.7535 166.62 64.0239C164.371 62.4432 162.273 61.3488 160.327 60.7408C158.443 60.1328 156.862 59.8288 155.585 59.8288C153.822 60.376 152.363 60.9232 151.208 61.4704C150.052 62.0176 149.444 62.2912 149.384 62.2912C149.019 62.4736 148.624 62.5647 148.198 62.5647C147.408 62.5647 146.8 62.2912 146.374 61.744C144.246 62.8991 142.209 64.9967 140.264 68.0367C138.318 71.0766 136.707 74.7853 135.43 79.1629C134.579 82.0204 133.941 84.878 133.515 87.7355C133.089 90.5931 132.877 93.3898 132.877 96.1258C132.877 99.9561 133.302 103.33 134.153 106.249C134.761 108.194 135.521 109.897 136.433 111.356C137.345 112.815 138.349 114.061 139.443 115.095C140.537 116.068 141.662 116.889 142.817 117.557C144.033 118.165 145.158 118.652 146.192 119.017C148.988 120.05 151.968 120.567 155.129 120.567C157.865 120.567 160.479 120.202 162.972 119.473C164.857 118.925 167.015 117.557 169.447 115.369C171.94 113.18 174.22 110.17 176.287 106.34ZM169.538 59.92C170.754 60.7712 172.031 61.8352 173.369 63.1119C174.767 64.3887 176.135 65.8783 177.473 67.5807C178.81 69.283 180.057 71.2286 181.212 73.4174C182.367 75.5453 183.37 77.9773 184.221 80.7132C185.133 83.814 185.589 87.0059 185.589 90.2891C185.589 93.3898 185.164 96.4906 184.313 99.5913C183.522 102.692 182.337 105.732 180.756 108.711C178.628 112.602 176.105 115.977 173.186 118.834C170.268 121.631 167.35 123.455 164.431 124.306C161.391 125.218 158.291 125.674 155.129 125.674C151.481 125.674 147.924 125.066 144.459 123.85C143.121 123.364 141.723 122.725 140.264 121.935C138.805 121.084 137.376 120.02 135.977 118.743C134.579 117.466 133.272 115.946 132.056 114.183C130.901 112.359 129.958 110.201 129.229 107.708C128.256 104.425 127.77 100.564 127.77 96.1258C127.77 93.2074 127.982 90.1979 128.408 87.0971C128.894 83.9356 129.594 80.8044 130.505 77.7037C132.208 71.867 134.427 67.0943 137.163 63.3855C139.96 59.6768 143 57.3056 146.283 56.2721C147.195 56.0289 148.137 55.9073 149.11 55.9073C149.414 55.9073 149.718 55.9073 150.022 55.9073C150.326 55.9073 150.63 55.9681 150.934 56.0897C151.724 55.7857 152.788 55.4209 154.126 54.9953C154.734 54.8129 155.463 54.7217 156.315 54.7217C158.139 54.7217 160.206 55.1777 162.516 56.0897C164.887 57.0016 167.228 58.2784 169.538 59.92Z" fill="black"/>
<path d="M110.076 106.34C110.927 104.638 111.839 102.418 112.812 99.6825C113.785 96.8858 114.271 93.7546 114.271 90.2891C114.271 87.6139 113.876 84.9084 113.086 82.1724C112.356 79.8013 111.475 77.6733 110.441 75.7885C109.468 73.843 108.404 72.1406 107.249 70.6814C106.094 69.1614 104.908 67.8543 103.692 66.7599C102.537 65.6655 101.443 64.7535 100.409 64.0239C98.1596 62.4432 96.062 61.3488 94.1164 60.7408C92.2317 60.1328 90.6509 59.8288 89.3741 59.8288C87.611 60.376 86.1518 60.9232 84.9966 61.4704C83.8414 62.0176 83.2334 62.2912 83.1726 62.2912C82.8078 62.4736 82.4126 62.5647 81.9871 62.5647C81.1967 62.5647 80.5887 62.2912 80.1631 61.744C78.0351 62.8991 75.9984 64.9967 74.0528 68.0367C72.1072 71.0766 70.496 74.7853 69.2193 79.1629C68.3681 82.0204 67.7297 84.878 67.3041 87.7355C66.8785 90.5931 66.6657 93.3898 66.6657 96.1258C66.6657 99.9561 67.0913 103.33 67.9425 106.249C68.5505 108.194 69.3105 109.897 70.2224 111.356C71.1344 112.815 72.1376 114.061 73.232 115.095C74.3264 116.068 75.4512 116.889 76.6063 117.557C77.8223 118.165 78.9471 118.652 79.9807 119.017C82.7774 120.05 85.7566 120.567 88.9181 120.567C91.6541 120.567 94.2684 120.202 96.7612 119.473C98.646 118.925 100.804 117.557 103.236 115.369C105.729 113.18 108.009 110.17 110.076 106.34ZM103.327 59.92C104.543 60.7712 105.82 61.8352 107.158 63.1119C108.556 64.3887 109.924 65.8783 111.262 67.5807C112.599 69.283 113.846 71.2286 115.001 73.4174C116.156 75.5453 117.159 77.9773 118.01 80.7132C118.922 83.814 119.378 87.0059 119.378 90.2891C119.378 93.3898 118.953 96.4906 118.102 99.5913C117.311 102.692 116.126 105.732 114.545 108.711C112.417 112.602 109.894 115.977 106.975 118.834C104.057 121.631 101.139 123.455 98.2204 124.306C95.1804 125.218 92.0797 125.674 88.9181 125.674C85.2702 125.674 81.7135 125.066 78.2479 123.85C76.9103 123.364 75.512 122.725 74.0528 121.935C72.5936 121.084 71.1648 120.02 69.7665 118.743C68.3681 117.466 67.0609 115.946 65.8449 114.183C64.6897 112.359 63.7474 110.201 63.0178 107.708C62.045 104.425 61.5586 100.564 61.5586 96.1258C61.5586 93.2074 61.7714 90.1979 62.197 87.0971C62.6834 83.9356 63.3826 80.8044 64.2945 77.7037C65.9969 71.867 68.2161 67.0943 70.952 63.3855C73.7488 59.6768 76.7887 57.3056 80.0719 56.2721C80.9839 56.0289 81.9263 55.9073 82.899 55.9073C83.203 55.9073 83.507 55.9073 83.811 55.9073C84.115 55.9073 84.419 55.9681 84.723 56.0897C85.5134 55.7857 86.5774 55.4209 87.915 54.9953C88.5229 54.8129 89.2525 54.7217 90.1037 54.7217C91.9277 54.7217 93.9949 55.1777 96.3052 56.0897C98.6764 57.0016 101.017 58.2784 103.327 59.92Z" fill="black"/>
<path d="M62.5622 123.668C63.2309 123.79 63.7781 124.094 64.2037 124.58C64.6293 125.066 64.8117 125.735 64.7509 126.586C64.6901 127.255 64.4165 127.772 63.9301 128.137C63.4437 128.562 62.775 128.775 61.9238 128.775L60.191 128.593C58.975 128.471 57.2726 128.319 55.0839 128.137C52.8951 127.954 50.2504 127.802 47.1496 127.681C44.1097 127.559 40.7049 127.498 36.9354 127.498C34.3818 127.498 31.7675 127.529 29.0923 127.589C26.4172 127.711 23.8028 127.833 21.2492 127.954C18.7565 128.076 16.3853 128.197 14.1358 128.319C11.8862 128.501 9.91023 128.653 8.20786 128.775C6.50549 128.897 5.13751 128.988 4.10393 129.049C3.13115 129.17 2.61436 129.231 2.55356 129.231C1.88477 129.231 1.30718 128.988 0.820786 128.501C0.334394 128.076 0.060799 127.468 0 126.677C0 126.009 0.212796 125.431 0.638389 124.945C1.06398 124.458 1.61117 124.185 2.27996 124.124L3.73914 123.212C3.73914 123.151 4.19513 122.452 5.10711 121.114C6.0191 119.716 7.17428 117.953 8.57266 115.825C10.0318 113.636 11.6126 111.235 13.315 108.62C15.0174 106.006 16.6589 103.452 18.2397 100.959C19.8813 98.4059 21.3708 96.0652 22.7084 93.9372C24.046 91.7484 25.0492 90.0765 25.718 88.9213C26.5084 87.4621 27.5723 85.6381 28.9099 83.4494C30.2475 81.2606 31.6763 78.9199 33.1962 76.4271C34.777 73.9343 36.3882 71.4416 38.0298 68.9488C39.6713 66.3953 41.1913 64.1153 42.5897 62.1089C41.3129 61.9265 39.5497 61.7441 37.3002 61.5618C35.0506 61.3186 32.3755 61.197 29.2747 61.197C26.9036 61.197 24.4716 61.2882 21.9788 61.4706C19.4861 61.653 17.1757 61.8657 15.0477 62.1089C12.9806 62.2913 11.2478 62.4737 9.84944 62.6561C8.51186 62.8385 7.78227 62.9297 7.66067 62.9297C6.99188 62.9297 6.41429 62.7169 5.9279 62.2913C5.50231 61.8657 5.22871 61.2274 5.10711 60.3762C5.10711 59.7074 5.28951 59.1602 5.65431 58.7346C6.0799 58.2482 6.62709 57.9442 7.29588 57.8226C7.41748 57.8226 8.14706 57.7314 9.48464 57.549C10.883 57.3666 12.6158 57.1842 14.683 57.0018C16.8109 56.7586 19.1517 56.5458 21.7052 56.3634C24.2588 56.181 26.782 56.0898 29.2747 56.0898C34.2602 56.0898 38.2122 56.3026 41.1305 56.7282C44.1097 57.1538 45.6904 57.397 45.8728 57.4578C46.2984 56.8498 46.9368 56.5458 47.788 56.5458C48.3352 56.5458 48.852 56.6978 49.3384 57.0018C50.0072 57.549 50.3416 58.2482 50.3416 59.0994C50.3416 59.525 50.1896 60.0418 49.8856 60.6498C48.7304 62.1697 47.2408 64.2673 45.4168 66.9425C43.6537 69.6176 41.7993 72.4752 39.8537 75.5151C37.969 78.4943 36.145 81.4126 34.3818 84.2702C32.6187 87.1277 31.2203 89.4989 30.1867 91.3837C29.6395 92.3564 28.8491 93.694 27.8155 95.3964C26.782 97.038 25.6268 98.8619 24.35 100.868C23.0732 102.814 21.7356 104.881 20.3373 107.07C18.9389 109.259 17.5709 111.387 16.2333 113.454C14.8958 115.46 13.6494 117.345 12.4942 119.108C11.339 120.871 10.3662 122.33 9.57584 123.486C11.339 123.364 13.2846 123.242 15.4125 123.121C17.6013 122.999 19.8813 122.878 22.2524 122.756C24.6844 122.634 27.1467 122.543 29.6395 122.482C32.1323 122.422 34.5642 122.391 36.9354 122.391C40.8265 122.391 44.3225 122.452 47.4232 122.574C50.524 122.695 53.1687 122.847 55.3575 123.03C57.607 123.212 59.3398 123.364 60.5558 123.486C61.7718 123.607 62.4406 123.668 62.5622 123.668Z" fill="black"/>
<path fill-rule="evenodd" clip-rule="evenodd" d="M458.899 35.1785C461.536 33.9482 464.788 32.8307 468.021 33.0213C470.166 33.1478 471.939 34.2101 473.351 35.4688C474.76 36.7246 475.915 38.2706 476.82 39.5433C476.917 39.68 477.033 39.9099 477.105 40.0509L477.114 40.0687C477.214 40.2669 477.343 40.5281 477.49 40.8255C477.61 41.0704 477.741 41.3389 477.879 41.622C478.082 42.0376 478.301 42.4847 478.523 42.9351C478.832 43.5624 479.137 44.174 479.395 44.6731C479.418 44.6575 479.442 44.6421 479.466 44.627C479.53 44.5864 479.661 44.5056 479.82 44.4436C481.443 43.8095 483.141 43.6123 484.686 43.4981C487.997 43.2535 492.139 43.0732 495.79 43.9922C499.507 44.9279 502.874 47.0549 504.258 51.4668C505.179 54.4049 503.962 56.8167 502.276 58.6133C500.963 60.0122 499.26 61.1616 497.783 62.0709C497.81 62.0782 497.838 62.0857 497.865 62.0933C497.966 62.1208 498.072 62.1495 498.182 62.1801C499.066 62.4242 500.259 62.7912 501.19 63.8309C504.254 67.2506 506.652 71.7508 505.841 76.7777C505.666 77.8604 505.351 79.2227 504.841 80.5204C504.341 81.7924 503.598 83.146 502.487 84.0583C501.901 84.5395 501.175 84.7139 500.582 84.7827C499.965 84.8542 499.309 84.8307 498.714 84.7784C498.112 84.7255 497.516 84.6377 497.015 84.5614C496.963 84.5535 496.912 84.5458 496.863 84.5383C496.411 84.4693 496.082 84.4191 495.848 84.4002C495.399 84.3639 494.925 84.3313 494.433 84.2974C492.208 84.1442 489.624 83.9663 487.338 83.3162C485.072 82.6718 482.924 81.5186 481.54 79.3769C481.496 79.4777 481.45 79.5757 481.401 79.6682C477.729 86.6454 471.011 89.0233 463.817 89.8821C461.305 90.1821 458.814 89.9487 456.997 88.7274C455.05 87.4181 454.196 85.2036 454.572 82.3373C454.917 79.7111 455.408 77.0995 455.904 74.5418C455.946 74.3255 456.041 74.0092 456.12 73.7432C456.141 73.6752 456.16 73.6106 456.177 73.5517C456.223 73.3951 456.266 73.2421 456.304 73.0958C449.672 74.2793 441.918 73.7639 436.818 68.1358C435.585 66.7743 435.007 65.2713 435 63.7368C434.993 62.2327 435.535 60.8221 436.316 59.5968C437.861 57.1726 440.515 55.1939 442.843 54.1592C444.933 53.2304 447.391 53.0863 449.543 52.9603C449.872 52.941 450.194 52.9221 450.506 52.9009C452.985 52.7327 454.977 52.4304 456.453 51.2716C456.45 51.1562 456.413 50.9523 456.3 50.6421C456.182 50.3161 456.017 49.9708 455.836 49.604C455.817 49.564 455.796 49.5225 455.775 49.4798C455.626 49.1787 455.448 48.8194 455.339 48.5208C454.529 46.3009 454.068 43.6672 454.463 41.2388C454.865 38.7598 456.179 36.4474 458.899 35.1785ZM456.441 72.2626C456.441 72.2624 456.441 72.2644 456.441 72.269ZM494.646 61.3526C494.707 60.969 494.932 60.6138 495.293 60.3984C497 59.3804 498.932 58.1975 500.279 56.7618C501.591 55.3634 502.171 53.9329 501.651 52.2746C500.634 49.0337 498.23 47.4065 495.119 46.6234C491.942 45.8237 488.2 45.9602 484.889 46.2049C483.429 46.3128 482.1 46.4845 480.899 46.9388C480.883 46.95 480.862 46.9648 480.834 46.9842C480.817 46.9967 480.776 47.0262 480.726 47.0627C480.633 47.1304 480.506 47.2222 480.434 47.2729C480.284 47.3789 480.084 47.5146 479.875 47.6246C479.77 47.6801 479.632 47.7453 479.475 47.7958C479.331 47.842 479.079 47.9063 478.776 47.8768C478.47 47.847 478.254 47.7235 478.162 47.6649C478.055 47.597 477.977 47.5277 477.933 47.4855C477.844 47.4009 477.779 47.3183 477.744 47.2715C477.668 47.1709 477.597 47.0592 477.54 46.9647C477.42 46.7667 477.278 46.5063 477.127 46.2212C476.822 45.6446 476.443 44.8843 476.071 44.129C475.849 43.6787 475.624 43.2187 475.418 42.797C475.28 42.5148 475.15 42.2498 475.036 42.0161C474.89 41.7198 474.767 41.4721 474.675 41.2906C474.594 41.1309 474.562 41.0743 474.564 41.0735C474.564 41.0735 474.564 41.0735 474.564 41.0737C473.678 39.8286 472.68 38.5162 471.528 37.4897C470.369 36.4561 469.158 35.8075 467.859 35.7308C465.309 35.5805 462.557 36.4705 460.059 37.6356C458.321 38.4465 457.449 39.8828 457.158 41.6711C456.86 43.5098 457.2 45.6618 457.906 47.5957C457.96 47.7434 458.063 47.9521 458.231 48.2937C458.25 48.3307 458.269 48.3694 458.289 48.4097C458.47 48.7768 458.694 49.2405 458.868 49.7202C459.038 50.1865 459.202 50.7767 459.182 51.3885C459.161 52.0488 458.919 52.7733 458.257 53.3124C456.028 55.1275 453.177 55.4403 450.692 55.6089C450.338 55.6329 449.991 55.6543 449.651 55.6751C447.45 55.8105 445.555 55.9271 443.958 56.6371C442.007 57.5039 439.821 59.1693 438.623 61.0492C438.032 61.9759 437.727 62.8823 437.731 63.7249C437.734 64.537 438.024 65.4102 438.848 66.3193C443.209 71.1325 450.21 71.5988 456.747 70.2458C457.102 70.1724 457.552 70.1508 458.004 70.3372C458.49 70.5374 458.8 70.9041 458.971 71.2778C459.255 71.9017 459.176 72.6007 459.114 72.9934C459.04 73.461 458.907 73.9414 458.799 74.3096C458.76 74.4442 458.727 74.5565 458.698 74.6507C458.636 74.8618 458.6 74.9819 458.585 75.0562C458.089 77.6111 457.614 80.1518 457.28 82.6888C457.003 84.7998 457.636 85.8799 458.527 86.479C459.549 87.166 461.25 87.4548 463.492 87.1872C470.352 86.3681 475.933 84.2014 478.981 78.41C479.066 78.2481 479.169 77.9575 479.304 77.523C479.325 77.4581 479.346 77.389 479.368 77.3172C479.472 76.9787 479.594 76.5789 479.722 76.2611C479.798 76.0713 479.911 75.815 480.076 75.5854C480.195 75.42 480.623 74.8667 481.404 74.8698C482.198 74.8729 482.629 75.4454 482.767 75.6511C482.947 75.9198 483.08 76.2414 483.187 76.5528C483.974 78.8511 485.722 80.0335 488.089 80.7066C490.07 81.2701 492.29 81.4252 494.503 81.5798C495.027 81.6164 495.55 81.6529 496.069 81.6948C496.408 81.7222 496.844 81.789 497.265 81.8534C497.32 81.8618 497.374 81.8702 497.428 81.8784C497.927 81.9544 498.448 82.0301 498.954 82.0746C499.468 82.1197 499.913 82.1275 500.265 82.0867C500.615 82.0461 500.736 81.9726 500.747 81.9658C500.748 81.9653 500.748 81.9651 500.748 81.9654C501.336 81.4824 501.867 80.6281 502.298 79.5327C502.718 78.463 502.991 77.2984 503.144 76.3478C503.77 72.4707 501.955 68.7667 499.151 65.6359C498.791 65.2337 498.297 65.0289 497.451 64.7953C497.362 64.7706 497.266 64.7453 497.165 64.7185C496.425 64.5225 495.393 64.2494 494.528 63.6183C493.92 63.1748 493.789 62.3254 494.235 61.7212C494.349 61.5669 494.49 61.4435 494.646 61.3526Z" fill="black"/>
<path fill-rule="evenodd" clip-rule="evenodd" d="M511.133 6.81086C512.211 7.0983 513.572 7.60888 514.553 8.63298C515.303 9.4172 515.512 10.4142 515.549 11.2227C515.587 12.0358 515.458 12.851 515.352 13.4498C515.335 13.5469 515.307 13.6387 515.301 13.6565C515.301 13.6576 515.3 13.6584 515.3 13.6589C515.288 13.6981 515.274 13.7419 515.26 13.7853C515.232 13.8731 515.194 13.9854 515.152 14.109C515.116 14.2138 515.078 14.3257 515.038 14.443C514.986 14.5939 514.932 14.7536 514.876 14.9181C515.327 15.1522 515.709 15.4318 516.023 15.6751C516.965 16.4047 518.231 17.4418 519.043 18.7516C519.908 20.1462 520.284 21.9073 519.308 23.8381C518.608 25.2236 517.36 25.7407 516.253 25.8866C515.907 25.9323 515.556 25.9444 515.216 25.9363C515.237 26.0942 515.245 26.2632 515.233 26.4426C515.109 28.3242 514.476 30.4773 512.678 31.9491C512.313 32.248 511.819 32.6059 511.276 32.8963C510.763 33.1709 510.058 33.4662 509.312 33.467C508.77 33.4675 508.348 33.2313 508.098 33.0556C507.834 32.8699 507.614 32.6466 507.45 32.4639C507.281 32.2762 507.13 32.0831 507.018 31.9387L507.012 31.9308C506.883 31.7652 506.831 31.6978 506.799 31.6636C506.706 31.5613 506.601 31.4495 506.488 31.3294C505.943 30.748 505.213 29.9702 504.725 29.1217C504.425 28.6003 504.192 28.0136 504.102 27.376C501.361 28.0606 498.995 27.054 496.998 25.6618C496.161 25.0785 495.344 24.2253 495.133 23.094C494.9 21.8488 495.472 20.7294 496.473 19.8652C497.152 19.2791 497.852 18.7225 498.541 18.1871C496.734 16.8031 495.187 14.7359 495.357 11.9122C495.411 11.0291 495.735 10.2761 496.267 9.69047C496.783 9.12239 497.436 8.77461 498.071 8.57024C499.313 8.17092 500.725 8.23884 501.766 8.53835C502.762 8.82506 503.613 9.5124 504.2 9.98683C504.287 10.0569 504.368 10.1223 504.443 10.1811C504.865 10.5129 505.178 10.7201 505.443 10.834C505.443 10.8322 505.444 10.8305 505.445 10.8288C505.449 10.8145 505.454 10.7992 505.46 10.7832C505.479 10.7251 505.502 10.6578 505.523 10.5975C505.55 10.5212 505.588 10.4183 505.635 10.3154C506.055 9.38988 506.708 8.39249 507.586 7.67569C508.483 6.94208 509.72 6.43359 511.133 6.81086ZM506.193 26.4617C506.193 26.4618 506.19 26.4634 506.184 26.466C506.19 26.4629 506.193 26.4615 506.193 26.4617ZM513.042 23.1778C513.281 23.0631 513.556 23.0169 513.838 23.0605C514.579 23.1752 515.291 23.2698 515.898 23.1898C516.449 23.1173 516.717 22.9336 516.88 22.6113C517.341 21.6985 517.207 20.9519 516.731 20.185C516.203 19.3333 515.299 18.5549 514.357 17.8255C514.005 17.5528 513.727 17.3679 513.461 17.2554C513.435 17.2538 513.405 17.2519 513.373 17.2496C513.297 17.2439 513.159 17.2323 513.014 17.2015C512.94 17.186 512.827 17.1579 512.701 17.105C512.589 17.0583 512.363 16.9496 512.16 16.7196C511.939 16.4678 511.873 16.2059 511.851 16.1041C511.824 15.9803 511.82 15.8785 511.819 15.8238C511.818 15.7132 511.83 15.6238 511.836 15.5845C511.849 15.4962 511.868 15.4155 511.881 15.366C511.908 15.2567 511.946 15.1284 511.984 15.0043C512.063 14.7494 512.172 14.4242 512.278 14.1103C512.341 13.9234 512.407 13.7292 512.468 13.5529C512.507 13.4364 512.545 13.3277 512.576 13.234C512.618 13.1115 512.651 13.0124 512.674 12.9414C512.679 12.9278 512.683 12.9163 512.686 12.9067C512.783 12.348 512.854 11.8153 512.832 11.3473C512.81 10.8553 512.693 10.6239 512.588 10.5138C512.131 10.0369 511.361 9.68687 510.432 9.43893C510.104 9.35135 509.747 9.42168 509.307 9.78182C508.846 10.1588 508.415 10.7701 508.112 11.4394C508.112 11.4386 508.112 11.4382 508.112 11.4382C508.112 11.4382 508.105 11.4555 508.088 11.5028C508.074 11.5428 508.06 11.584 508.042 11.6374C508.036 11.6566 508.029 11.6773 508.021 11.7001C507.97 11.853 507.892 12.078 507.791 12.3014C507.694 12.514 507.534 12.8188 507.276 13.0854C506.996 13.3736 506.545 13.6684 505.935 13.6666C504.524 13.6625 503.466 12.8727 502.763 12.3203C502.655 12.2358 502.555 12.1561 502.46 12.081C501.819 11.5737 501.443 11.276 501.013 11.1522C500.408 10.9778 499.554 10.9507 498.904 11.1596C498.594 11.2593 498.396 11.3914 498.28 11.5195C498.18 11.6301 498.09 11.7897 498.073 12.076C497.953 14.0596 499.309 15.6284 501.282 16.7427C501.506 16.8687 501.811 17.1052 501.984 17.5155C502.166 17.9491 502.109 18.3606 502.004 18.6466C501.832 19.1097 501.475 19.4075 501.347 19.513C501.165 19.6635 500.967 19.7935 500.836 19.8781C500.787 19.9097 500.761 19.9265 500.738 19.9411C500.716 19.9551 500.697 19.9672 500.664 19.9885C500.637 20.006 500.624 20.015 500.62 20.0176C499.801 20.6497 499.006 21.272 498.251 21.9238C497.984 22.1546 497.875 22.3282 497.833 22.4246C497.797 22.5073 497.799 22.5542 497.806 22.5937C497.829 22.7141 497.979 23.0302 498.553 23.4304C500.457 24.7574 502.197 25.3087 504.203 24.4855C504.202 24.4859 504.203 24.4853 504.206 24.4836C504.221 24.4759 504.279 24.4442 504.412 24.3614C504.429 24.3504 504.45 24.3377 504.472 24.3236C504.589 24.25 504.763 24.1403 504.912 24.0616C504.997 24.0168 505.161 23.934 505.357 23.8821C505.359 23.8818 505.36 23.8814 505.361 23.881C505.46 23.8549 506.146 23.6726 506.723 24.2058C507.316 24.7535 507.169 25.4724 507.147 25.5828L507.146 25.5847C507.102 25.8037 507.017 25.9992 506.953 26.1347C506.678 26.711 506.749 27.1845 507.083 27.7665C507.397 28.3131 507.852 28.8002 508.386 29.3732C508.522 29.5193 508.663 29.671 508.809 29.8307C508.918 29.9507 509.042 30.1097 509.131 30.2249C509.143 30.2406 509.154 30.2554 509.165 30.2692C509.276 30.412 509.376 30.5376 509.474 30.6471C509.492 30.6675 509.509 30.6859 509.525 30.7025C509.641 30.6659 509.797 30.6026 509.993 30.498C510.337 30.3139 510.683 30.0671 510.955 29.8444C511.941 29.037 512.415 27.7558 512.517 26.2916C512.506 26.2665 512.48 26.2093 512.417 26.1021C512.407 26.0849 512.394 26.0633 512.379 26.0383C512.315 25.9312 512.213 25.761 512.133 25.5998C512.022 25.3769 511.902 25.0831 511.85 24.726C511.741 23.9828 512.255 23.2922 512.999 23.1835C513.013 23.1814 513.028 23.1795 513.042 23.1778Z" fill="black"/>
</svg>
